<svg width="48" height="48" viewBox="0 0 48 48" fill="none" xmlns="http://www.w3.org/2000/svg">
<path fill-rule="evenodd" clip-rule="evenodd" d="M19.4932 11.5063C19.2979 11.311 18.9814 11.311 18.7861 11.5063L6.6461 23.6463C6.55233 23.7401 6.49965 23.8673 6.49965 23.9999C6.49965 24.1325 6.55233 24.2596 6.6461 24.3534L18.7861 36.4934C18.9814 36.6887 19.2979 36.6887 19.4932 36.4934C19.6885 36.2982 19.6885 35.9816 19.4932 35.7863L7.70676 23.9999L19.4932 12.2134C19.6885 12.0182 19.6885 11.7016 19.4932 11.5063Z" fill="#C5C0BB"/>
<path fill-rule="evenodd" clip-rule="evenodd" d="M41.5 24C41.5 23.7239 41.2761 23.5 41 23.5H7.34C7.06386 23.5 6.84 23.7239 6.84 24C6.84 24.2761 7.06386 24.5 7.34 24.5H41C41.2761 24.5 41.5 24.2761 41.5 24Z" fill="#C5C0BB"/>
</svg>
