<svg width="48" height="48" viewBox="0 0 48 48" fill="none" xmlns="http://www.w3.org/2000/svg">
<path fill-rule="evenodd" clip-rule="evenodd" d="M28.5068 11.5063C28.7021 11.311 29.0186 11.311 29.2139 11.5063L41.3539 23.6463C41.4477 23.7401 41.5004 23.8673 41.5004 23.9999C41.5004 24.1325 41.4477 24.2596 41.3539 24.3534L29.2139 36.4934C29.0186 36.6887 28.7021 36.6887 28.5068 36.4934C28.3115 36.2982 28.3115 35.9816 28.5068 35.7863L40.2932 23.9999L28.5068 12.2134C28.3115 12.0182 28.3115 11.7016 28.5068 11.5063Z" fill="#1C0D02"/>
<path fill-rule="evenodd" clip-rule="evenodd" d="M6.5 24C6.5 23.7239 6.72386 23.5 7 23.5H40.66C40.9361 23.5 41.16 23.7239 41.16 24C41.16 24.2761 40.9361 24.5 40.66 24.5H7C6.72386 24.5 6.5 24.2761 6.5 24Z" fill="#1C0D02"/>
</svg>
