<svg width="40" height="40" viewBox="0 0 40 40" fill="none" xmlns="http://www.w3.org/2000/svg">
<path fill-rule="evenodd" clip-rule="evenodd" d="M23.6963 9.53024C23.8915 9.33497 24.2081 9.33497 24.4034 9.53024L34.52 19.6469C34.6138 19.7407 34.6665 19.8678 34.6665 20.0005C34.6665 20.1331 34.6138 20.2602 34.52 20.354L24.4034 30.4707C24.2081 30.6659 23.8915 30.6659 23.6963 30.4707C23.501 30.2754 23.501 29.9588 23.6963 29.7636L33.4594 20.0005L23.6963 10.2373C23.501 10.0421 23.501 9.7255 23.6963 9.53024Z" fill="#1C0D02"/>
<path fill-rule="evenodd" clip-rule="evenodd" d="M5.3335 20.0005C5.3335 19.7243 5.55735 19.5005 5.8335 19.5005H33.8835C34.1596 19.5005 34.3835 19.7243 34.3835 20.0005C34.3835 20.2766 34.1596 20.5005 33.8835 20.5005H5.8335C5.55735 20.5005 5.3335 20.2766 5.3335 20.0005Z" fill="#1C0D02"/>
</svg>
