<svg width="40" height="40" viewBox="0 0 40 40" fill="none" xmlns="http://www.w3.org/2000/svg">
<path fill-rule="evenodd" clip-rule="evenodd" d="M23.6963 9.52987C23.8915 9.33461 24.2081 9.33461 24.4034 9.52987L34.52 19.6465C34.6138 19.7403 34.6665 19.8675 34.6665 20.0001C34.6665 20.1327 34.6138 20.2599 34.52 20.3536L24.4034 30.4703C24.2081 30.6656 23.8915 30.6656 23.6963 30.4703C23.501 30.275 23.501 29.9585 23.6963 29.7632L33.4594 20.0001L23.6963 10.237C23.501 10.0417 23.501 9.72513 23.6963 9.52987Z" fill="#1C0D02"/>
<path fill-rule="evenodd" clip-rule="evenodd" d="M5.3335 20.0001C5.3335 19.724 5.55735 19.5001 5.8335 19.5001H33.8835C34.1596 19.5001 34.3835 19.724 34.3835 20.0001C34.3835 20.2763 34.1596 20.5001 33.8835 20.5001H5.8335C5.55735 20.5001 5.3335 20.2763 5.3335 20.0001Z" fill="#1C0D02"/>
</svg>
